<svg width="63" height="62" viewBox="0 0 63 62" fill="none" xmlns="http://www.w3.org/2000/svg">
<g clip-path="url(#clip0_50_1448)">
<path fill-rule="evenodd" clip-rule="evenodd" d="M46.5459 62H15.5459C11.435 62 7.49256 60.367 4.58574 57.4602C1.67893 54.5533 0.0458984 50.6109 0.0458984 46.5V15.5C0.0458984 11.3891 1.67893 7.44666 4.58574 4.53984C7.49256 1.63303 11.435 0 15.5459 0L46.5459 0C50.6568 0 54.5992 1.63303 57.5061 4.53984C60.4129 7.44666 62.0459 11.3891 62.0459 15.5V46.5C62.0459 50.6109 60.4129 54.5533 57.5061 57.4602C54.5992 60.367 50.6568 62 46.5459 62Z" fill="#2D2D2D"/>
<path fill-rule="evenodd" clip-rule="evenodd" d="M29.1084 17.4375H46.5459C48.7829 17.4403 50.9354 16.5832 52.5581 15.0434C54.1809 13.5036 55.1497 11.399 55.2642 9.16494C55.3786 6.93087 54.63 4.73826 53.1732 3.04068C51.7163 1.3431 49.6627 0.270428 47.4371 0.0445625C47.1407 0.0280937 46.8472 0 46.5459 0H15.5459C11.435 0 7.49256 1.63303 4.58574 4.53984C1.67893 7.44666 0.0458984 11.3891 0.0458984 15.5L0.0458984 46.5C0.0458984 38.7921 3.10783 31.4 8.55811 25.9497C14.0084 20.4994 21.4005 17.4375 29.1084 17.4375Z" fill="#464646"/>
<path fill-rule="evenodd" clip-rule="evenodd" d="M46.5459 30.9999C43.4803 30.9999 40.4835 31.909 37.9346 33.6121C35.3856 35.3153 33.3989 37.7361 32.2258 40.5683C31.0526 43.4006 30.7457 46.5171 31.3437 49.5238C31.9418 52.5305 33.418 55.2923 35.5858 57.4601C37.7535 59.6278 40.5153 61.104 43.522 61.7021C46.5287 62.3001 49.6452 61.9932 52.4775 60.82C55.3098 59.6469 57.7305 57.6602 59.4337 55.1112C61.1368 52.5623 62.0459 49.5655 62.0459 46.4999V15.4999C62.0459 19.6108 60.4129 23.5533 57.5061 26.4601C54.5992 29.3669 50.6568 30.9999 46.5459 30.9999Z" fill="#141414"/>
<path d="M37.8954 11.8303C37.8717 13.6605 37.1838 15.4197 35.9598 16.7806C35.3878 17.5393 34.6654 18.1719 33.8378 18.6388C33.0102 19.1057 32.0952 19.3968 31.15 19.4941C31.0593 19.4959 30.9691 19.4796 30.8848 19.4461C30.8005 19.4126 30.7237 19.3627 30.6589 19.2992C30.5942 19.2357 30.5427 19.1599 30.5076 19.0762C30.4725 18.9926 30.4544 18.9028 30.4544 18.8121H30.4447C30.5065 16.9524 31.2347 15.1769 32.4965 13.8095C33.1968 13.0238 34.0469 12.3859 34.9969 11.933C35.6801 11.5891 36.4083 11.3428 37.1601 11.2016C37.2506 11.1879 37.343 11.194 37.431 11.2193C37.519 11.2446 37.6005 11.2886 37.6699 11.3483C37.7394 11.408 37.7951 11.4819 37.8333 11.5651C37.8716 11.6483 37.8914 11.7387 37.8915 11.8303H37.8954ZM44.7212 38.6918C44.2051 39.8935 43.5676 41.0393 42.8186 42.1115C42.1139 43.1862 41.2922 44.1794 40.3686 45.073C39.529 45.912 38.406 46.4068 37.2202 46.4602C36.2154 46.416 35.2283 46.1802 34.312 45.7656C33.3226 45.3344 32.259 45.0991 31.18 45.073C30.0721 45.0949 28.9788 45.3301 27.9599 45.7656C27.0796 46.1626 26.1393 46.4098 25.1776 46.497C24.5725 46.4897 23.9751 46.3597 23.4216 46.1149C22.8682 45.8702 22.3701 45.5157 21.9575 45.073C20.9935 44.148 20.1342 43.1198 19.3952 42.0069C18.2399 40.351 17.3272 38.5385 16.6846 36.6245C15.9518 34.5638 15.5671 32.3955 15.5463 30.2085C15.488 28.063 16.0202 25.9428 17.0847 24.0792C17.8606 22.7339 18.9704 21.6115 20.3068 20.8203C21.6244 20.0319 23.1278 19.6076 24.6632 19.591C25.8227 19.6597 26.962 19.925 28.0325 20.3756C28.8856 20.7513 29.7837 21.0154 30.7043 21.1613C31.7202 20.9497 32.7131 20.6395 33.6687 20.2352C34.9459 19.7163 36.3181 19.4727 37.6958 19.5202C39.5405 19.6092 41.3166 20.2471 42.7963 21.3521C43.0023 21.5238 43.1691 21.7377 43.2853 21.9794C43.4015 22.2211 43.4644 22.4849 43.4698 22.753C43.4753 23.0211 43.423 23.2873 43.3167 23.5334C43.2103 23.7796 43.0524 24.0001 42.8534 24.1799C42.0625 24.8852 41.4365 25.756 41.02 26.7304C40.6034 27.7048 40.4065 28.759 40.4432 29.818C40.4298 30.8761 40.6415 31.9249 41.0643 32.8949C41.487 33.8649 42.111 34.734 42.8951 35.4445C43.2386 35.772 43.6097 36.0692 44.0043 36.3329C44.3767 36.5809 44.6511 36.9509 44.7802 37.3793C44.9092 37.8077 44.885 38.2677 44.7115 38.6802C44.7231 38.687 44.7212 38.6899 44.7212 38.6918Z" fill="white"/>
</g>
<defs>
<clipPath id="clip0_50_1448">
<rect width="62" height="62" fill="white" transform="translate(0.0458984)"/>
</clipPath>
</defs>
</svg>
