<svg width="63" height="61" viewBox="0 0 63 61" fill="none" xmlns="http://www.w3.org/2000/svg">
<g clip-path="url(#clip0_50_1436)">
<path fill-rule="evenodd" clip-rule="evenodd" d="M46.5459 61H15.5459C11.435 61 7.49256 59.3933 4.58574 56.5334C1.67893 53.6735 0.0458984 49.7946 0.0458984 45.75V15.25C0.0458984 11.2054 1.67893 7.32655 4.58574 4.46662C7.49256 1.60669 11.435 0 15.5459 0L46.5459 0C50.6568 0 54.5992 1.60669 57.5061 4.46662C60.4129 7.32655 62.0459 11.2054 62.0459 15.25V45.75C62.0459 49.7946 60.4129 53.6735 57.5061 56.5334C54.5992 59.3933 50.6568 61 46.5459 61Z" fill="#2D2D2D"/>
<path fill-rule="evenodd" clip-rule="evenodd" d="M29.1084 17.1562H46.5459C48.7829 17.159 50.9354 16.3157 52.5581 14.8008C54.1809 13.2858 55.1497 11.2152 55.2642 9.01712C55.3786 6.81908 54.63 4.66184 53.1732 2.99164C51.7163 1.32143 49.6627 0.266067 47.4371 0.0438437C47.1407 0.0276406 46.8472 0 46.5459 0H15.5459C11.435 0 7.49256 1.60669 4.58574 4.46662C1.67893 7.32655 0.0458984 11.2054 0.0458984 15.25L0.0458984 45.75C0.0458984 38.1665 3.10783 30.8935 8.55811 25.5312C14.0084 20.1688 21.4005 17.1562 29.1084 17.1562Z" fill="#464646"/>
<path fill-rule="evenodd" clip-rule="evenodd" d="M46.5459 30.4999C43.4803 30.4999 40.4835 31.3943 37.9346 33.07C35.3856 34.7457 33.3989 37.1274 32.2258 39.914C31.0526 42.7006 30.7457 45.7668 31.3437 48.725C31.9418 51.6832 33.418 54.4005 35.5858 56.5333C37.7535 58.666 40.5153 60.1185 43.522 60.7069C46.5287 61.2953 49.6452 60.9933 52.4775 59.8391C55.3098 58.6848 57.7305 56.7302 59.4337 54.2224C61.1368 51.7145 62.0459 48.7661 62.0459 45.7499V15.2499C62.0459 19.2945 60.4129 23.1734 57.5061 26.0333C54.5992 28.8932 50.6568 30.4999 46.5459 30.4999Z" fill="#141414"/>
<g clip-path="url(#clip1_50_1436)">
<path d="M21.9713 15.1611C20.7112 14.4758 19.2316 14.4917 17.9794 15.171L32.6547 28.4906L37.5847 23.6401L21.9713 15.1611ZM16.5119 16.5337C16.1536 17.11 15.9482 17.7696 15.9482 18.4687V42.5251C15.9482 43.2025 16.1355 43.8482 16.4737 44.4126L31.2315 29.8928L16.5119 16.5337ZM44.1212 27.1893L39.4186 24.6363L34.1343 29.8334L40.6104 35.7099L44.1232 33.8025C45.3874 33.1133 46.1443 31.8774 46.1443 30.4949C46.1423 29.1125 45.3874 27.8766 44.1212 27.1893ZM32.7111 31.2357L17.913 45.7951C18.5552 46.1556 19.2597 46.3457 19.9683 46.3457C20.6528 46.3457 21.3413 46.1754 21.9713 45.8327L38.7543 36.72L32.7111 31.2357Z" fill="white"/>
</g>
</g>
<defs>
<clipPath id="clip0_50_1436">
<rect width="62" height="61" fill="white" transform="translate(0.0458984)"/>
</clipPath>
<clipPath id="clip1_50_1436">
<rect width="32.2109" height="31.6914" fill="white" transform="translate(14.9404 14.6542)"/>
</clipPath>
</defs>
</svg>
