<svg width="49" height="48" viewBox="0 0 49 48" fill="none" xmlns="http://www.w3.org/2000/svg">
<path d="M39.1453 22.4999H25.7128V9.06738C25.7128 8.66956 25.5547 8.28803 25.2734 8.00672C24.9921 7.72542 24.6106 7.56738 24.2128 7.56738C23.8149 7.56738 23.4334 7.72542 23.1521 8.00672C22.8708 8.28803 22.7128 8.66956 22.7128 9.06738V22.4999H9.28027C8.88245 22.4999 8.50092 22.6579 8.21961 22.9392C7.93831 23.2205 7.78027 23.6021 7.78027 23.9999C7.78027 24.3977 7.93831 24.7792 8.21961 25.0605C8.50092 25.3419 8.88245 25.4999 9.28027 25.4999H22.7128V38.9324C22.7128 39.3302 22.8708 39.7117 23.1521 39.993C23.4334 40.2743 23.8149 40.4324 24.2128 40.4324C24.6106 40.4324 24.9921 40.2743 25.2734 39.993C25.5547 39.7117 25.7128 39.3302 25.7128 38.9324V25.4999H39.1453C39.5431 25.4999 39.9246 25.3419 40.2059 25.0605C40.4872 24.7792 40.6453 24.3977 40.6453 23.9999C40.6453 23.6021 40.4872 23.2205 40.2059 22.9392C39.9246 22.6579 39.5431 22.4999 39.1453 22.4999Z" fill="#FFDC42"/>
</svg>
