<svg width="17" height="16" viewBox="0 0 17 16" fill="none" xmlns="http://www.w3.org/2000/svg">
<path d="M15.0667 0.883026C10.4657 2.31854 5.55719 4.28121 0.620323 6.10202C0.00415814 6.32974 0.00887607 7.16325 0.629759 7.34568C2.06433 7.76683 3.50456 8.20843 4.94511 8.65601C5.03853 8.68494 5.13981 8.67205 5.22221 8.62047C7.5252 7.17898 9.84612 5.69817 12.0985 4.29788C12.2152 4.22522 12.3422 4.38941 12.241 4.48219C10.411 6.16178 8.50842 7.90869 6.63414 9.62822C6.51399 9.73831 6.49229 9.91948 6.58224 10.0563C7.78972 11.8928 8.99311 13.7385 10.1198 15.5515C10.406 16.0132 11.0832 15.9166 11.287 15.3914C13.0487 10.8291 14.9038 6.31276 16.2301 2.0427C16.4321 1.38785 15.7206 0.680469 15.0667 0.883026Z" fill="#191919"/>
<path d="M4.72168 10.0769C4.733 11.3536 4.75628 12.6303 4.79119 13.9069C4.80755 14.4523 5.45045 14.7552 5.83669 14.3919C6.24055 14.0133 6.64912 13.6311 7.06147 13.2467C7.26088 13.0609 7.29737 12.7529 7.14608 12.5202C6.57238 11.6376 5.99207 10.7547 5.41302 9.87624C5.20606 9.56234 4.71853 9.7045 4.72199 10.0769H4.72168Z" fill="#191919"/>
</svg>
